<?xml version="1.0" encoding="UTF-8" standalone="no"?>
<svg
   xmlns:dc="http://purl.org/dc/elements/1.1/"
   xmlns:cc="http://creativecommons.org/ns#"
   xmlns:rdf="http://www.w3.org/1999/02/22-rdf-syntax-ns#"
   xmlns:svg="http://www.w3.org/2000/svg"
   xmlns="http://www.w3.org/2000/svg"
   viewBox="0 0 899.94666 167.77333"
   height="167.77333"
   width="899.94666"
   xml:space="preserve"
   id="svg2"
   version="1.1"><metadata
     id="metadata8"><rdf:RDF><cc:Work
         rdf:about=""><dc:format>image/svg+xml</dc:format><dc:type
           rdf:resource="http://purl.org/dc/dcmitype/StillImage" /></cc:Work></rdf:RDF></metadata><defs
     id="defs6"><clipPath
       id="clipPath20"
       clipPathUnits="userSpaceOnUse"><path
         style="clip-rule:evenodd"
         id="path18"
         d="M 75.1133,235.156 C -93.4766,588.648 20.1914,851.664 431.734,1019.16 L 75.1133,235.156" /></clipPath><linearGradient
       id="linearGradient26"
       spreadMethod="pad"
       gradientTransform="matrix(-295.227,-667.474,-318.825,141.017,414.902,931.665)"
       gradientUnits="userSpaceOnUse"
       y2="0"
       x2="1"
       y1="0"
       x1="0"><stop
         id="stop22"
         offset="0"
         style="stop-opacity:1;stop-color:#73bf2c" /><stop
         id="stop24"
         offset="1"
         style="stop-opacity:1;stop-color:#2c411b" /></linearGradient><clipPath
       id="clipPath36"
       clipPathUnits="userSpaceOnUse"><path
         style="clip-rule:evenodd"
         id="path34"
         d="m 157.164,141.727 c 164.191,349.839 395.945,661.168 665.195,951.043 71.043,94.88 202.601,117.71 206.631,31.18 -0.27,-33.93 -0.82,-67.3 -1.65,-100.3 C 701.441,756.875 439.34,437.484 215.738,88.8281 193.469,104.227 173.66,121.848 157.164,141.727" /></clipPath><linearGradient
       id="linearGradient42"
       spreadMethod="pad"
       gradientTransform="matrix(-744.504,-956.288,-219.822,171.139,1051.57,1022.21)"
       gradientUnits="userSpaceOnUse"
       y2="0"
       x2="1"
       y1="0"
       x1="0"><stop
         id="stop38"
         offset="0"
         style="stop-opacity:1;stop-color:#9dd85a" /><stop
         id="stop40"
         offset="1"
         style="stop-opacity:1;stop-color:#75955a" /></linearGradient><clipPath
       id="clipPath52"
       clipPathUnits="userSpaceOnUse"><path
         style="clip-rule:evenodd"
         id="path50"
         d="M 215.738,88.8281 C 439.34,437.484 701.441,756.875 1027.34,1023.65 1017.17,612.211 960.059,272.09 779.91,119.094 616.547,-11.6406 361.684,-11.4531 215.738,88.8281" /></clipPath><linearGradient
       id="linearGradient58"
       spreadMethod="pad"
       gradientTransform="matrix(-218.191,-898.529,-699.722,169.914,1150.26,970.591)"
       gradientUnits="userSpaceOnUse"
       y2="0"
       x2="1"
       y1="0"
       x1="0"><stop
         id="stop54"
         offset="0"
         style="stop-opacity:1;stop-color:#63b531" /><stop
         id="stop56"
         offset="1"
         style="stop-opacity:1;stop-color:#324e21" /></linearGradient></defs><g
     transform="matrix(1.3333333,0,0,-1.3333333,0,167.77333)"
     id="g10"><g
       transform="scale(0.1)"
       id="g12"><g
         id="g14"><g
           clip-path="url(#clipPath20)"
           id="g16"><path
             id="path28"
             style="fill:url(#linearGradient26);fill-opacity:1;fill-rule:nonzero;stroke:none"
             d="M 75.1133,235.156 C -93.4766,588.648 20.1914,851.664 431.734,1019.16 L 75.1133,235.156" /></g></g><g
         id="g30"><g
           clip-path="url(#clipPath36)"
           id="g32"><path
             id="path44"
             style="fill:url(#linearGradient42);fill-opacity:1;fill-rule:nonzero;stroke:none"
             d="m 157.164,141.727 c 164.191,349.839 395.945,661.168 665.195,951.043 71.043,94.88 202.601,117.71 206.631,31.18 -0.27,-33.93 -0.82,-67.3 -1.65,-100.3 C 701.441,756.875 439.34,437.484 215.738,88.8281 193.469,104.227 173.66,121.848 157.164,141.727" /></g></g><g
         id="g46"><g
           clip-path="url(#clipPath52)"
           id="g48"><path
             id="path60"
             style="fill:url(#linearGradient58);fill-opacity:1;fill-rule:nonzero;stroke:none"
             d="M 215.738,88.8281 C 439.34,437.484 701.441,756.875 1027.34,1023.65 1017.17,612.211 960.059,272.09 779.91,119.094 616.547,-11.6406 361.684,-11.4531 215.738,88.8281" /></g></g><path
         id="path62"
         style="fill:#221d1c;fill-opacity:1;fill-rule:evenodd;stroke:none"
         d="m 1130.3,506.141 c 38.68,420.422 768.79,683.169 864.5,300.879 65.37,-382.286 -298.86,-440.5 -680.78,-451.415 53.07,-248.625 350.29,-213.332 519.25,-91.21 L 1812.28,85.5273 C 1353.53,-85.8984 1057.51,113.867 1130.3,506.141 Z m 682.98,240.832 c -37.31,177.027 -416.39,43.91 -493.12,-247.164 274.29,-28.969 539.51,46.851 493.12,247.164" /><path
         id="path64"
         style="fill:#221d1c;fill-opacity:1;fill-rule:evenodd;stroke:none"
         d="m 1995.9,29.4258 159.98,931.7972 h 187.65 l -32.64,-200.774 c 68.22,142.473 183.09,237.074 394.86,231.758 161.16,-10.266 300.23,-97.91 264.39,-365.512 L 2857.56,22.9219 h -186.1 l 109.36,623.3911 c 19.08,132.476 -16.31,169.695 -79.94,184.363 C 2578.5,851.852 2436.58,764.297 2354.9,641.363 2240.68,460.215 2214.63,239.914 2178.7,29.4258 h -182.8" /><path
         id="path66"
         style="fill:#221d1c;fill-opacity:1;fill-rule:evenodd;stroke:none"
         d="m 3034.12,963.703 h 183.08 l 141.09,-638.254 359.37,643.285 h 194.8 L 3336.38,9.72656 h -70.5 L 3034.12,963.703" /><path
         id="path68"
         style="fill:#221d1c;fill-opacity:1;fill-rule:evenodd;stroke:none"
         d="M 4056.94,8.06641 C 3747.91,75.1836 3680.71,488.352 3929.34,767.145 4191.25,1033.37 4477.19,1054.82 4779.18,913.27 L 4619.57,29.8828 H 4441.53 L 4490.3,251.555 C 4423.1,93.7031 4263.5,-15.4805 4056.94,8.06641 Z M 4144.21,157.5 c 193.18,-8.43 337.65,220.02 364.52,332.512 34.28,112.121 58.85,223.683 62.16,322.511 -206.66,80.582 -438.39,-35.3 -535.76,-183.074 C 3831.51,269.258 4061.9,148.801 4144.21,157.5" /><path
         id="path70"
         style="fill:#221d1c;fill-opacity:1;fill-rule:evenodd;stroke:none"
         d="m 4942.63,1152.73 213.6,105.61 -57.39,-294.004 h 335.27 l -61.98,-151.531 h -294 L 4986.27,316.84 c -28.7,-130.004 37.5,-187.027 220.47,-135.512 L 5172.27,34.3867 C 4998.28,-3.28906 4793.38,20.5391 4802.55,266.309 l 140.08,886.421" /><path
         id="path72"
         style="fill:#221d1c;fill-opacity:1;fill-rule:evenodd;stroke:none"
         d="m 5324.27,500.453 c 45.47,276.227 307.11,500.367 583.88,500.367 276.68,0 464.43,-224.14 418.88,-500.367 C 6281.47,224.148 6019.91,0 5743.13,0 5466.37,0 5278.71,224.148 5324.27,500.453 Z m 809.5,-5.961 c 40.24,183.906 -64.91,332.969 -234.69,332.699 -169.88,-0.277 -340.48,-149.8 -380.72,-333.699 -40.26,-184 64.9,-333.054 234.67,-332.691 169.88,0.285 340.49,149.711 380.74,333.691" /><path
         id="path74"
         style="fill:#221d1c;fill-opacity:1;fill-rule:evenodd;stroke:none"
         d="m 6419.98,749.086 27.78,146.035 h -52.26 l 5.79,29.059 h 134.2 l -5.78,-29.059 h -50.5 l -27.68,-145.855 -31.55,-0.18" /><path
         id="path76"
         style="fill:#221d1c;fill-opacity:1;fill-rule:evenodd;stroke:none"
         d="m 6639.09,745.422 h -25.48 l -34.38,118.805 -29.16,-115.512 -26.48,0.094 40.14,175.007 27.78,-0.554 41.7,-136.313 91.77,138.149 24.57,-0.086 -13.11,-176.754 h -27.69 l 9.46,114.234 -79.12,-117.07" /></g></g></svg>