<?xml version="1.0" encoding="UTF-8" standalone="no"?>
<!-- Generator: Adobe Illustrator 16.0.0, SVG Export Plug-In . SVG Version: 6.00 Build 0)  -->

<svg
   xmlns:dc="http://purl.org/dc/elements/1.1/"
   xmlns:cc="http://creativecommons.org/ns#"
   xmlns:rdf="http://www.w3.org/1999/02/22-rdf-syntax-ns#"
   xmlns:svg="http://www.w3.org/2000/svg"
   xmlns="http://www.w3.org/2000/svg"
   xmlns:sodipodi="http://sodipodi.sourceforge.net/DTD/sodipodi-0.dtd"
   xmlns:inkscape="http://www.inkscape.org/namespaces/inkscape"
   version="1.1"
   id="Capa_1"
   x="0px"
   y="0px"
   width="511.9964"
   height="127.68597"
   viewBox="0 0 416.63407 103.90346"
   xml:space="preserve"
   sodipodi:docname="microlancer.svg"
   inkscape:version="0.92.1 r15371"><metadata
     id="metadata71"><rdf:RDF><cc:Work
         rdf:about=""><dc:format>image/svg+xml</dc:format><dc:type
           rdf:resource="http://purl.org/dc/dcmitype/StillImage" /><dc:title></dc:title></cc:Work></rdf:RDF></metadata><defs
     id="defs69" /><sodipodi:namedview
     pagecolor="#ffffff"
     bordercolor="#666666"
     borderopacity="1"
     objecttolerance="10"
     gridtolerance="10"
     guidetolerance="10"
     inkscape:pageopacity="0"
     inkscape:pageshadow="2"
     inkscape:window-width="1920"
     inkscape:window-height="1018"
     id="namedview67"
     showgrid="false"
     fit-margin-top="0"
     fit-margin-left="0"
     fit-margin-right="0"
     fit-margin-bottom="0"
     inkscape:zoom="0.4609375"
     inkscape:cx="256.00008"
     inkscape:cy="63.842741"
     inkscape:window-x="-8"
     inkscape:window-y="-8"
     inkscape:window-maximized="1"
     inkscape:current-layer="Capa_1" /><g
     id="g34"
     transform="translate(6.1796471e-5,-156.36644)"><g
       id="g32"><path
         d="M 75.295,162.302 C 56.12,152.726 37.389,154.916 20.048,167.57 l -2.768,2.128 -3.586,0.509 c 0,0 -5.674,0.852 -8.512,1.289 l 5.522,5.174 -1.881,2.738 C 3.197,187.733 0.009,196.922 0,206.944 c -0.028,21.517 9.459,37.878 28.678,47.443 19.267,9.582 38.045,7.244 55.504,-5.451 l 2.539,-1.742 12.545,-2.15 -6.012,-5.301 c 7.07,-9.575 10.778,-19.727 10.625,-30.924 -0.283,-21.073 -9.756,-37.106 -28.584,-46.517 z m 15.262,70.797 c -0.41,0.629 -0.874,1.219 -1.689,2.338 l -4.792,-4.714 -1.716,12.061 -2.399,1.8 C 64.768,255.413 48.469,257.457 31.749,249.252 15.157,241.113 6.503,227.208 6.017,208.57 c -0.245,-9.297 2.488,-17.78 7.619,-25.507 0.315,-0.476 0.711,-1.144 1.621,-2.275 l 4.548,5.064 c 0.487,-3.227 0.843,-6.482 1.522,-9.666 l 0.439,-2.191 1.535,-1.347 c 17.205,-14.164 42.758,-13.224 59.831,2.116 16.358,14.702 19.565,39.862 7.425,58.335 z"
         id="path2"
         inkscape:connector-curvature="0"
         style="fill:#5c088c" /><path
         d="m 61.424,218.477 c 0.829,-3.608 1.728,-7.206 2.478,-10.835 0.49,-2.376 -0.33,-3.626 -2.154,-3.697 -2.337,-0.083 -4.61,1.614 -5.15,3.9 -0.87,3.687 -1.67,7.393 -2.618,11.058 l -0.411,1.714 -8.119,0.026 c 0.178,-0.819 0.265,-1.215 0.357,-1.607 0.855,-3.692 1.758,-7.373 2.555,-11.078 0.552,-2.554 -0.2,-3.9 -2.062,-4.01 -2.269,-0.134 -4.628,1.614 -5.156,3.837 -0.871,3.687 -1.674,7.4 -2.622,11.065 l -0.445,1.794 -8.134,0.006 c 1.389,-6.087 2.672,-11.702 3.988,-17.469 -4.438,0 -8.617,0 -12.75,0 -2.892,12.195 4.11,30.026 22.072,35.146 18.311,5.231 33.569,-6.716 37.228,-17.64 -6.444,0 -12.804,0 -19.49,0 0.211,-1.072 0.302,-1.644 0.433,-2.21 z"
         id="path4"
         inkscape:connector-curvature="0"
         style="fill:#5c088c" /><path
         d="m 56.111,177.4 c -14.89,-2.23 -30.553,7.066 -33.435,19.249 l 20.658,-0.006 -0.019,1.233 c 6.999,-3.49 10.135,-1.837 13.925,1.791 0.885,-0.614 1.735,-1.302 2.67,-1.847 3.339,-1.972 6.85,-2.69 10.231,-0.344 3.253,2.25 2.843,5.618 2.094,8.948 -0.569,2.525 -1.122,5.047 -1.714,7.704 4.205,0 8.14,0 12.182,0 3.432,-17.65 -8.55,-34.034 -26.592,-36.728 z"
         id="path6"
         inkscape:connector-curvature="0"
         style="fill:#5c088c" /><path
         d="m 154.179,190.937 c -1.122,-0.781 -2.281,-1.302 -3.448,-1.562 -1.163,-0.261 -2.069,-0.382 -2.768,-0.382 -2.563,0 -4.747,0.521 -6.491,1.55 -1.553,0.922 -2.924,2.16 -4.076,3.693 -1.049,-1.771 -2.336,-3.088 -3.829,-3.902 -3.454,-1.88 -7.313,-1.671 -10.923,-0.102 -1.605,0.707 -3,1.882 -4.156,3.528 v -3.731 h -5.825 v 31.035 h 5.825 v -17.831 c 0,-1.437 0.226,-2.703 0.667,-3.762 0.442,-1.056 1.052,-1.951 1.805,-2.657 0.759,-0.712 1.639,-1.251 2.615,-1.613 1.677,-0.623 3.583,-0.751 5.348,-0.224 0.702,0.209 1.327,0.574 1.864,1.088 0.538,0.515 0.976,1.207 1.299,2.071 0.333,0.865 0.499,1.981 0.499,3.317 v 19.612 h 5.825 V 202.37 c 0,-1.353 0.223,-2.529 0.664,-3.49 0.439,-0.958 1.039,-1.754 1.792,-2.364 0.754,-0.617 1.636,-1.086 2.615,-1.398 1.684,-0.527 3.6,-0.668 5.366,-0.141 0.703,0.209 1.328,0.574 1.862,1.088 0.538,0.515 0.976,1.207 1.302,2.071 0.331,0.865 0.499,1.981 0.499,3.317 v 19.611 h 5.824 V 200.07 c 0,-2.37 -0.413,-4.308 -1.23,-5.77 -0.808,-1.451 -1.795,-2.582 -2.925,-3.363 z"
         id="path8"
         inkscape:connector-curvature="0"
         style="fill:#5c088c" /><rect
         x="163.32401"
         y="178.72301"
         width="5.8239999"
         height="7.1620002"
         id="rect10"
         style="fill:#5c088c" /><rect
         x="163.32401"
         y="190.02699"
         width="5.8239999"
         height="31.035"
         id="rect12"
         style="fill:#5c088c" /><path
         d="m 195.618,209.491 c -0.541,2.449 -1.42,4.239 -2.602,5.327 -1.166,1.079 -2.866,1.625 -5.057,1.625 -1.533,0 -2.87,-0.278 -3.972,-0.826 -1.103,-0.544 -2.023,-1.302 -2.729,-2.241 -0.721,-0.954 -1.258,-2.107 -1.61,-3.438 -0.36,-1.341 -0.538,-2.823 -0.538,-4.392 0,-1.577 0.178,-3.058 0.538,-4.398 0.352,-1.321 0.89,-2.478 1.61,-3.43 0.712,-0.948 1.627,-1.703 2.729,-2.25 1.104,-0.542 2.444,-0.82 3.972,-0.82 2.227,0 3.994,0.533 5.251,1.577 1.249,1.048 2.027,2.515 2.307,4.363 l 0.054,0.344 h 6.126 l -0.065,-0.464 c -0.277,-1.924 -0.815,-3.627 -1.627,-5.045 -0.806,-1.424 -1.843,-2.63 -3.081,-3.584 -1.233,-0.946 -2.667,-1.671 -4.265,-2.141 -1.582,-0.47 -3.278,-0.706 -5.046,-0.706 -2.421,0 -4.569,0.446 -6.389,1.334 -1.815,0.889 -3.35,2.109 -4.57,3.629 -1.206,1.512 -2.131,3.304 -2.748,5.324 -0.61,2.008 -0.918,4.175 -0.918,6.437 0,1.99 0.267,3.972 0.792,5.905 0.527,1.941 1.375,3.715 2.516,5.269 1.15,1.562 2.686,2.842 4.55,3.78 1.869,0.954 4.163,1.437 6.818,1.437 1.729,0 3.35,-0.216 4.817,-0.625 1.481,-0.417 2.841,-1.137 4.032,-2.128 1.179,-0.988 2.224,-2.295 3.095,-3.863 0.868,-1.557 1.579,-3.514 2.118,-5.814 l 0.116,-0.5 h -6.143 z"
         id="path14"
         inkscape:connector-curvature="0"
         style="fill:#5c088c" /><path
         d="m 221.491,189.042 c -0.422,-0.039 -0.96,-0.051 -1.592,-0.051 -1.737,0 -3.454,0.521 -5.101,1.557 -1.344,0.852 -2.547,2.188 -3.603,3.979 v -4.5 h -5.818 v 31.036 h 5.818 v -15.754 c 0,-3.147 0.743,-5.547 2.221,-7.129 1.461,-1.583 3.407,-2.378 5.783,-2.378 0.631,0 1.22,0.045 1.731,0.135 0.511,0.096 1.09,0.236 1.703,0.418 l 0.528,0.165 v -7.078 l -0.28,-0.089 c -0.508,-0.165 -0.965,-0.267 -1.39,-0.311 z"
         id="path16"
         inkscape:connector-curvature="0"
         style="fill:#5c088c" /><path
         d="m 251.668,193.941 c -1.281,-1.518 -2.934,-2.739 -4.898,-3.622 -1.964,-0.883 -4.271,-1.328 -6.849,-1.328 -2.614,0 -4.926,0.446 -6.878,1.328 -1.95,0.883 -3.591,2.104 -4.872,3.622 -1.282,1.52 -2.259,3.291 -2.906,5.274 -0.645,1.976 -0.973,4.104 -0.973,6.329 0,2.218 0.325,4.354 0.973,6.33 0.647,1.975 1.624,3.754 2.903,5.261 1.281,1.524 2.925,2.739 4.875,3.634 1.95,0.883 4.258,1.333 6.878,1.333 2.581,0 4.892,-0.453 6.849,-1.333 1.971,-0.89 3.617,-2.109 4.898,-3.634 1.283,-1.505 2.257,-3.283 2.904,-5.261 0.648,-1.983 0.978,-4.112 0.978,-6.33 0,-2.226 -0.329,-4.354 -0.978,-6.329 -0.647,-1.982 -1.62,-3.755 -2.904,-5.274 z m -2.758,15.595 c -0.335,1.29 -0.885,2.453 -1.631,3.463 -0.744,1.005 -1.736,1.837 -2.943,2.48 -1.205,0.641 -2.688,0.964 -4.414,0.964 -1.729,0 -3.209,-0.323 -4.417,-0.964 -1.199,-0.644 -2.19,-1.476 -2.935,-2.48 -0.757,-1.01 -1.302,-2.173 -1.631,-3.463 -0.344,-1.309 -0.515,-2.649 -0.515,-3.99 0,-1.34 0.171,-2.689 0.515,-3.991 0.329,-1.29 0.885,-2.459 1.631,-3.469 0.744,-0.999 1.735,-1.831 2.935,-2.478 1.214,-0.636 2.696,-0.96 4.417,-0.96 1.727,0 3.208,0.324 4.414,0.96 1.207,0.647 2.198,1.479 2.943,2.478 0.749,1.01 1.296,2.18 1.631,3.469 0.343,1.302 0.507,2.651 0.507,3.991 0,1.34 -0.164,2.681 -0.507,3.99 z"
         id="path18"
         inkscape:connector-curvature="0"
         style="fill:#5c088c" /><rect
         x="259.383"
         y="178.72301"
         width="5.8270001"
         height="42.339001"
         id="rect20"
         style="fill:#5c088c" /><path
         d="m 291.798,190.676 c -1.221,-0.649 -2.573,-1.099 -4.035,-1.34 -1.431,-0.23 -2.843,-0.344 -4.188,-0.344 -4.015,0 -7.185,0.833 -9.453,2.498 -2.294,1.676 -3.629,4.493 -3.972,8.361 l -0.038,0.445 h 5.548 l 0.013,-0.395 c 0.032,-1.074 0.254,-1.981 0.669,-2.688 0.418,-0.712 0.968,-1.283 1.646,-1.709 0.685,-0.427 1.495,-0.738 2.409,-0.928 1.824,-0.356 3.952,-0.35 5.801,-0.077 0.87,0.127 1.646,0.356 2.3,0.679 0.641,0.32 1.125,0.751 1.488,1.349 0.355,0.584 0.541,1.366 0.541,2.325 0,1.194 -0.33,1.963 -1.018,2.35 -0.769,0.44 -1.831,0.732 -3.179,0.871 l -5.712,0.694 c -2.122,0.279 -3.931,0.673 -5.389,1.176 -1.474,0.521 -2.694,1.174 -3.603,1.949 -0.94,0.797 -1.622,1.768 -2.027,2.88 -0.394,1.102 -0.596,2.375 -0.596,3.806 0,1.029 0.157,2.105 0.462,3.195 0.312,1.111 0.89,2.153 1.716,3.103 0.819,0.939 1.964,1.727 3.4,2.325 1.429,0.594 3.274,0.899 5.49,0.899 1.086,0 2.211,-0.112 3.327,-0.328 1.125,-0.215 2.212,-0.543 3.24,-0.975 1.018,-0.439 1.976,-0.973 2.835,-1.606 0.565,-0.417 1.067,-0.885 1.495,-1.372 l 0.015,3.552 4.751,0.039 c 0.102,0 0.202,-0.015 0.312,-0.015 v -23.408 c 0,-1.849 -0.402,-3.381 -1.194,-4.557 -0.786,-1.159 -1.815,-2.087 -3.054,-2.754 z m -1.277,18.04 c 0,1.192 -0.261,2.295 -0.773,3.268 -0.521,0.984 -1.238,1.849 -2.147,2.553 -0.909,0.713 -1.982,1.279 -3.197,1.667 -1.226,0.387 -2.528,0.586 -3.882,0.586 -1.735,0 -3.14,-0.417 -4.177,-1.237 -1.027,-0.807 -1.524,-1.84 -1.524,-3.142 0,-1.487 0.425,-2.509 1.303,-3.127 0.929,-0.655 2.374,-1.138 4.302,-1.437 l 5.657,-0.801 c 1.422,-0.196 2.528,-0.418 3.304,-0.687 0.433,-0.14 0.814,-0.325 1.14,-0.551 z"
         id="path22"
         inkscape:connector-curvature="0"
         style="fill:#5c088c" /><path
         d="m 326.265,191.597 c -1.027,-0.903 -2.255,-1.571 -3.66,-1.99 -1.385,-0.419 -2.897,-0.617 -4.492,-0.617 -1.951,0 -3.896,0.413 -5.803,1.239 -1.599,0.707 -2.999,1.882 -4.153,3.528 v -3.731 h -5.82 v 31.036 h 5.82 v -17.831 c 0,-1.437 0.223,-2.696 0.674,-3.762 0.438,-1.056 1.049,-1.945 1.8,-2.657 0.762,-0.712 1.646,-1.251 2.62,-1.613 0.983,-0.369 2.032,-0.553 3.112,-0.553 2.581,0 4.473,0.571 5.621,1.703 1.146,1.125 1.729,2.765 1.729,4.869 v 19.843 h 5.821 v -20.995 c 0,-1.925 -0.29,-3.61 -0.856,-5.001 -0.582,-1.402 -1.39,-2.566 -2.413,-3.468 z"
         id="path24"
         inkscape:connector-curvature="0"
         style="fill:#5c088c" /><path
         d="m 356.005,209.491 c -0.545,2.449 -1.424,4.239 -2.606,5.327 -1.169,1.079 -2.865,1.625 -5.053,1.625 -1.54,0 -2.871,-0.278 -3.971,-0.826 -1.107,-0.544 -2.034,-1.302 -2.739,-2.241 -0.713,-0.954 -1.258,-2.107 -1.607,-3.438 -0.357,-1.341 -0.542,-2.823 -0.542,-4.392 0,-1.577 0.185,-3.058 0.542,-4.398 0.35,-1.321 0.895,-2.478 1.607,-3.43 0.714,-0.948 1.632,-1.703 2.739,-2.25 1.102,-0.542 2.433,-0.82 3.971,-0.82 2.225,0 3.991,0.533 5.243,1.577 1.249,1.048 2.025,2.515 2.313,4.363 l 0.052,0.344 h 6.126 l -0.068,-0.464 c -0.27,-1.924 -0.813,-3.627 -1.622,-5.045 -0.813,-1.424 -1.848,-2.63 -3.089,-3.584 -1.234,-0.946 -2.663,-1.671 -4.266,-2.141 -1.584,-0.47 -3.277,-0.706 -5.045,-0.706 -2.422,0 -4.571,0.446 -6.38,1.334 -1.823,0.889 -3.357,2.109 -4.571,3.629 -1.214,1.512 -2.143,3.304 -2.757,5.324 -0.61,2.008 -0.915,4.175 -0.915,6.437 0,1.99 0.268,3.972 0.794,5.905 0.529,1.941 1.374,3.715 2.517,5.269 1.145,1.562 2.682,2.842 4.543,3.78 1.869,0.954 4.163,1.437 6.826,1.437 1.729,0 3.342,-0.216 4.81,-0.625 1.481,-0.417 2.842,-1.137 4.035,-2.128 1.176,-0.988 2.225,-2.295 3.095,-3.863 0.864,-1.557 1.578,-3.514 2.123,-5.814 l 0.114,-0.5 h -6.145 z"
         id="path26"
         inkscape:connector-curvature="0"
         style="fill:#5c088c" /><path
         d="m 390.205,192.969 c -1.386,-1.377 -2.969,-2.401 -4.704,-3.038 -1.721,-0.629 -3.493,-0.939 -5.273,-0.939 -2.611,0 -4.929,0.446 -6.877,1.328 -1.942,0.883 -3.582,2.104 -4.867,3.622 -1.282,1.52 -2.255,3.291 -2.903,5.275 -0.648,1.975 -0.975,4.103 -0.975,6.329 0,2.218 0.325,4.354 0.975,6.33 0.648,1.975 1.621,3.754 2.903,5.261 1.278,1.524 2.918,2.739 4.867,3.634 1.945,0.884 4.259,1.334 6.877,1.334 1.342,0 2.703,-0.202 4.074,-0.595 1.366,-0.396 2.688,-1.023 3.928,-1.877 1.227,-0.846 2.368,-1.944 3.388,-3.252 1.02,-1.315 1.867,-2.919 2.516,-4.759 l 0.192,-0.547 h -6.158 l -0.103,0.261 c -0.412,1.022 -0.939,1.867 -1.569,2.517 -0.635,0.669 -1.328,1.194 -2.047,1.568 -0.73,0.383 -1.495,0.649 -2.271,0.804 -0.781,0.148 -1.519,0.222 -2.192,0.222 -1.057,0 -2.129,-0.195 -3.195,-0.585 -1.062,-0.389 -2.039,-0.967 -2.889,-1.735 -0.864,-0.774 -1.589,-1.733 -2.161,-2.88 -0.521,-1.028 -0.845,-2.225 -0.974,-3.565 h 24.09 v -1.155 c 0,-3.146 -0.432,-5.881 -1.278,-8.103 -0.851,-2.238 -1.988,-4.076 -3.374,-5.455 z m -19.249,9.399 c 0.202,-1.113 0.56,-2.116 1.049,-2.999 0.554,-1.011 1.245,-1.876 2.061,-2.574 0.806,-0.694 1.728,-1.233 2.732,-1.595 0.997,-0.369 2.07,-0.553 3.189,-0.553 2.249,0 4.2,0.7 5.783,2.091 1.494,1.302 2.465,3.202 2.897,5.629 h -17.711 z"
         id="path28"
         inkscape:connector-curvature="0"
         style="fill:#5c088c" /><path
         d="m 416.354,189.353 c -0.509,-0.165 -0.962,-0.267 -1.392,-0.312 -0.42,-0.039 -0.953,-0.051 -1.589,-0.051 -1.742,0 -3.456,0.521 -5.102,1.557 -1.339,0.852 -2.546,2.188 -3.604,3.979 v -4.5 h -5.82 v 31.036 h 5.82 v -15.754 c 0,-3.147 0.752,-5.547 2.218,-7.129 1.468,-1.583 3.412,-2.378 5.784,-2.378 0.64,0 1.221,0.045 1.735,0.135 0.507,0.096 1.087,0.236 1.704,0.418 l 0.526,0.165 v -7.078 z"
         id="path30"
         inkscape:connector-curvature="0"
         style="fill:#5c088c" /></g></g><g
     id="g36"
     transform="translate(6.1796471e-5,-156.36644)" /><g
     id="g38"
     transform="translate(6.1796471e-5,-156.36644)" /><g
     id="g40"
     transform="translate(6.1796471e-5,-156.36644)" /><g
     id="g42"
     transform="translate(6.1796471e-5,-156.36644)" /><g
     id="g44"
     transform="translate(6.1796471e-5,-156.36644)" /><g
     id="g46"
     transform="translate(6.1796471e-5,-156.36644)" /><g
     id="g48"
     transform="translate(6.1796471e-5,-156.36644)" /><g
     id="g50"
     transform="translate(6.1796471e-5,-156.36644)" /><g
     id="g52"
     transform="translate(6.1796471e-5,-156.36644)" /><g
     id="g54"
     transform="translate(6.1796471e-5,-156.36644)" /><g
     id="g56"
     transform="translate(6.1796471e-5,-156.36644)" /><g
     id="g58"
     transform="translate(6.1796471e-5,-156.36644)" /><g
     id="g60"
     transform="translate(6.1796471e-5,-156.36644)" /><g
     id="g62"
     transform="translate(6.1796471e-5,-156.36644)" /><g
     id="g64"
     transform="translate(6.1796471e-5,-156.36644)" /></svg>